<svg width="400" height="300" viewBox="0 0 400 300" fill="none" xmlns="http://www.w3.org/2000/svg">
  <defs>
    <linearGradient id="bg-gradient" x1="0%" y1="0%" x2="100%" y2="100%">
      <stop offset="0%" style="stop-color:#f0f9ff"/>
      <stop offset="100%" style="stop-color:#ecfdf5"/>
    </linearGradient>
  </defs>
  
  <rect width="400" height="300" fill="url(#bg-gradient)"/>
  
  <!-- Conference table -->
  <ellipse cx="200" cy="200" rx="150" ry="60" fill="#1f2937" opacity="0.1"/>
  <ellipse cx="200" cy="190" rx="140" ry="50" fill="#374151"/>
  
  <!-- Laptops on table -->
  <g opacity="0.8">
    <!-- Laptop 1 -->
    <rect x="120" y="170" width="40" height="25" rx="3" fill="#6b7280"/>
    <rect x="125" y="175" width="30" height="18" rx="2" fill="#111827"/>
    <rect x="127" y="177" width="26" height="14" fill="#10b981" opacity="0.3"/>
    
    <!-- Laptop 2 -->
    <rect x="240" y="175" width="40" height="25" rx="3" fill="#6b7280"/>
    <rect x="245" y="180" width="30" height="18" rx="2" fill="#111827"/>
    <rect x="247" y="182" width="26" height="14" fill="#2563eb" opacity="0.3"/>
  </g>
  
  <!-- Team members -->
  <!-- Person 1 -->
  <g transform="translate(100, 80)">
    <circle cx="0" cy="0" r="25" fill="#2563eb" opacity="0.2"/>
    <circle cx="0" cy="-5" r="12" fill="#fbbf24"/>
    <rect x="-8" y="5" width="16" height="20" rx="8" fill="#2563eb"/>
    <rect x="-6" y="12" width="12" height="8" fill="#ffffff" opacity="0.3"/>
  </g>
  
  <!-- Person 2 -->
  <g transform="translate(200, 60)">
    <circle cx="0" cy="0" r="25" fill="#059669" opacity="0.2"/>
    <circle cx="0" cy="-5" r="12" fill="#f59e0b"/>
    <rect x="-8" y="5" width="16" height="20" rx="8" fill="#059669"/>
    <rect x="-6" y="12" width="12" height="8" fill="#ffffff" opacity="0.3"/>
  </g>
  
  <!-- Person 3 -->
  <g transform="translate(300, 85)">
    <circle cx="0" cy="0" r="25" fill="#10b981" opacity="0.2"/>
    <circle cx="0" cy="-5" r="12" fill="#ef4444"/>
    <rect x="-8" y="5" width="16" height="20" rx="8" fill="#10b981"/>
    <rect x="-6" y="12" width="12" height="8" fill="#ffffff" opacity="0.3"/>
  </g>
  
  <!-- Person 4 -->
  <g transform="translate(150, 120)">
    <circle cx="0" cy="0" r="25" fill="#7c3aed" opacity="0.2"/>
    <circle cx="0" cy="-5" r="12" fill="#10b981"/>
    <rect x="-8" y="5" width="16" height="20" rx="8" fill="#7c3aed"/>
    <rect x="-6" y="12" width="12" height="8" fill="#ffffff" opacity="0.3"/>
  </g>
  
  <!-- Person 5 -->
  <g transform="translate(250, 115)">
    <circle cx="0" cy="0" r="25" fill="#dc2626" opacity="0.2"/>
    <circle cx="0" cy="-5" r="12" fill="#2563eb"/>
    <rect x="-8" y="5" width="16" height="20" rx="8" fill="#dc2626"/>
    <rect x="-6" y="12" width="12" height="8" fill="#ffffff" opacity="0.3"/>
  </g>
  
  <!-- Communication lines -->
  <g opacity="0.3">
    <line x1="100" y1="80" x2="200" y2="60" stroke="#2563eb" stroke-width="2"/>
    <line x1="200" y1="60" x2="300" y2="85" stroke="#059669" stroke-width="2"/>
    <line x1="150" y1="120" x2="250" y2="115" stroke="#10b981" stroke-width="2"/>
    <line x1="100" y1="80" x2="150" y2="120" stroke="#7c3aed" stroke-width="2"/>
    <line x1="300" y1="85" x2="250" y2="115" stroke="#dc2626" stroke-width="2"/>
  </g>
  
  <!-- Floating ideas and concepts -->
  <g opacity="0.6">
    <!-- AI brain icon -->
    <circle cx="50" cy="50" r="15" fill="#2563eb" opacity="0.2"/>
    <path d="M45 45 Q50 40 55 45 Q55 50 50 55 Q45 50 45 45" fill="#2563eb"/>
    <circle cx="48" cy="47" r="2" fill="#ffffff"/>
    <circle cx="52" cy="47" r="2" fill="#ffffff"/>
    <circle cx="50" cy="52" r="2" fill="#ffffff"/>
    
    <!-- Machine learning chart -->
    <g transform="translate(320, 30)">
      <rect x="0" y="0" width="3" height="15" fill="#10b981"/>
      <rect x="5" y="5" width="3" height="10" fill="#059669"/>
      <rect x="10" y="2" width="3" height="13" fill="#2563eb"/>
      <rect x="15" y="8" width="3" height="7" fill="#10b981"/>
    </g>
    
    <!-- Code snippet -->
    <rect x="30" y="220" width="30" height="15" rx="3" fill="#1f2937" opacity="0.8"/>
    <rect x="32" y="225" width="8" height="2" fill="#10b981"/>
    <rect x="32" y="228" width="12" height="2" fill="#2563eb"/>
    <rect x="32" y="231" width="6" height="2" fill="#059669"/>
    
    <!-- Network nodes -->
    <circle cx="350" cy="200" r="4" fill="#059669"/>
    <circle cx="365" cy="210" r="4" fill="#2563eb"/>
    <circle cx="380" cy="195" r="4" fill="#10b981"/>
    <line x1="350" y1="200" x2="365" y2="210" stroke="#059669" stroke-width="1"/>
    <line x1="365" y1="210" x2="380" y2="195" stroke="#2563eb" stroke-width="1"/>
  </g>
  
  <!-- Meeting atmosphere -->
  <g opacity="0.2">
    <!-- Speech bubbles -->
    <ellipse cx="80" cy="40" rx="15" ry="8" fill="#2563eb"/>
    <path d="M75 45 L80 50 L85 45" fill="#2563eb"/>
    
    <ellipse cx="320" cy="60" rx="12" ry="6" fill="#10b981"/>
    <path d="M315 63 L320 68 L325 63" fill="#10b981"/>
  </g>
</svg>
