<svg width="600" height="400" viewBox="0 0 600 400" fill="none" xmlns="http://www.w3.org/2000/svg">
  <defs>
    <linearGradient id="bg-gradient" x1="0%" y1="0%" x2="100%" y2="100%">
      <stop offset="0%" style="stop-color:#f0f9ff"/>
      <stop offset="100%" style="stop-color:#ecfdf5"/>
    </linearGradient>
    <linearGradient id="ai-gradient" x1="0%" y1="0%" x2="100%" y2="100%">
      <stop offset="0%" style="stop-color:#2563eb"/>
      <stop offset="50%" style="stop-color:#059669"/>
      <stop offset="100%" style="stop-color:#10b981"/>
    </linearGradient>
    <radialGradient id="glow" cx="50%" cy="50%" r="50%">
      <stop offset="0%" style="stop-color:#10b981" stop-opacity="0.3"/>
      <stop offset="100%" style="stop-color:#10b981" stop-opacity="0"/>
    </radialGradient>
  </defs>
  
  <rect width="600" height="400" fill="url(#bg-gradient)"/>
  
  <!-- Central AI Mind/Brain -->
  <g transform="translate(250, 150)">
    <!-- Outer glow effect -->
    <circle cx="50" cy="50" r="60" fill="url(#glow)"/>
    
    <!-- Main brain structure -->
    <path d="M20 40 Q30 20 50 25 Q70 20 80 40 Q85 50 80 60 Q75 75 60 80 Q40 80 25 75 Q15 60 20 40 Z" 
          fill="url(#ai-gradient)" opacity="0.8"/>
    
    <!-- Neural network nodes -->
    <circle cx="35" cy="35" r="4" fill="#ffffff"/>
    <circle cx="65" cy="35" r="4" fill="#ffffff"/>
    <circle cx="50" cy="50" r="4" fill="#ffffff"/>
    <circle cx="30" cy="60" r="4" fill="#ffffff"/>
    <circle cx="70" cy="60" r="4" fill="#ffffff"/>
    <circle cx="45" cy="70" r="4" fill="#ffffff"/>
    <circle cx="55" cy="70" r="4" fill="#ffffff"/>
    
    <!-- Neural connections -->
    <line x1="35" y1="35" x2="50" y2="50" stroke="#10b981" stroke-width="2" opacity="0.8"/>
    <line x1="65" y1="35" x2="50" y2="50" stroke="#10b981" stroke-width="2" opacity="0.8"/>
    <line x1="50" y1="50" x2="30" y2="60" stroke="#10b981" stroke-width="2" opacity="0.8"/>
    <line x1="50" y1="50" x2="70" y2="60" stroke="#10b981" stroke-width="2" opacity="0.8"/>
    <line x1="30" y1="60" x2="45" y2="70" stroke="#10b981" stroke-width="2" opacity="0.8"/>
    <line x1="70" y1="60" x2="55" y2="70" stroke="#10b981" stroke-width="2" opacity="0.8"/>
    <line x1="50" y1="50" x2="45" y2="70" stroke="#059669" stroke-width="2" opacity="0.6"/>
    <line x1="50" y1="50" x2="55" y2="70" stroke="#059669" stroke-width="2" opacity="0.6"/>
  </g>
  
  <!-- Orbiting data elements -->
  <g opacity="0.7">
    <!-- Left side data clusters -->
    <g transform="translate(100, 100)">
      <circle cx="0" cy="0" r="8" fill="#2563eb" opacity="0.3"/>
      <rect x="-6" y="-3" width="12" height="2" rx="1" fill="#2563eb"/>
      <rect x="-5" y="-1" width="10" height="2" rx="1" fill="#2563eb"/>
      <rect x="-4" y="1" width="8" height="2" rx="1" fill="#2563eb"/>
      
      <!-- Data connection -->
      <line x1="8" y1="0" x2="150" y2="50" stroke="#2563eb" stroke-width="1" opacity="0.4"/>
    </g>
    
    <g transform="translate(80, 200)">
      <circle cx="0" cy="0" r="8" fill="#059669" opacity="0.3"/>
      <circle cx="-3" cy="-2" r="2" fill="#059669"/>
      <circle cx="3" cy="-2" r="2" fill="#059669"/>
      <circle cx="0" cy="2" r="2" fill="#059669"/>
      
      <!-- Data connection -->
      <line x1="8" y1="0" x2="150" y2="-50" stroke="#059669" stroke-width="1" opacity="0.4"/>
    </g>
    
    <!-- Right side data clusters -->
    <g transform="translate(500, 120)">
      <circle cx="0" cy="0" r="8" fill="#10b981" opacity="0.3"/>
      <rect x="-4" y="-6" width="2" height="12" fill="#10b981"/>
      <rect x="-1" y="-4" width="2" height="8" fill="#10b981"/>
      <rect x="2" y="-5" width="2" height="10" fill="#10b981"/>
      
      <!-- Data connection -->
      <line x1="-8" y1="0" x2="-150" y2="30" stroke="#10b981" stroke-width="1" opacity="0.4"/>
    </g>
    
    <g transform="translate(480, 250)">
      <circle cx="0" cy="0" r="8" fill="#7c3aed" opacity="0.3"/>
      <path d="M-4 -2 L0 -6 L4 -2 L0 2 Z" fill="#7c3aed"/>
      
      <!-- Data connection -->
      <line x1="-8" y1="0" x2="-130" y2="-50" stroke="#7c3aed" stroke-width="1" opacity="0.4"/>
    </g>
  </g>
  
  <!-- Top floating elements -->
  <g opacity="0.6">
    <!-- Code snippets -->
    <g transform="translate(200, 50)">
      <rect x="0" y="0" width="60" height="8" rx="4" fill="#1f2937" opacity="0.8"/>
      <rect x="4" y="2" width="12" height="2" rx="1" fill="#10b981"/>
      <rect x="4" y="5" width="20" height="1" rx="0.5" fill="#e5e7eb"/>
      <text x="30" y="8" font-family="monospace" font-size="6" fill="#e5e7eb">AI.py</text>
    </g>
    
    <g transform="translate(350, 70)">
      <rect x="0" y="0" width="50" height="6" rx="3" fill="#1f2937" opacity="0.8"/>
      <rect x="3" y="1" width="8" height="1.5" rx="0.5" fill="#2563eb"/>
      <rect x="3" y="3" width="15" height="1" rx="0.5" fill="#e5e7eb"/>
      <text x="25" y="6" font-family="monospace" font-size="5" fill="#e5e7eb">ML.js</text>
    </g>
  </g>
  
  <!-- Bottom elements -->
  <g opacity="0.5">
    <!-- Data visualization -->
    <g transform="translate(150, 320)">
      <rect x="0" y="0" width="4" height="20" fill="#10b981"/>
      <rect x="8" y="5" width="4" height="15" fill="#2563eb"/>
      <rect x="16" y="2" width="4" height="18" fill="#059669"/>
      <rect x="24" y="8" width="4" height="12" fill="#7c3aed"/>
      <text x="14" y="28" font-family="Arial, sans-serif" font-size="8" fill="#6b7280" text-anchor="middle">Analytics</text>
    </g>
    
    <!-- Algorithm representation -->
    <g transform="translate(400, 310)">
      <circle cx="10" cy="10" r="3" fill="#2563eb"/>
      <circle cx="25" cy="5" r="3" fill="#059669"/>
      <circle cx="30" cy="15" r="3" fill="#10b981"/>
      <circle cx="15" cy="20" r="3" fill="#7c3aed"/>
      
      <line x1="10" y1="10" x2="25" y2="5" stroke="#2563eb" stroke-width="1"/>
      <line x1="25" y1="5" x2="30" y2="15" stroke="#059669" stroke-width="1"/>
      <line x1="10" y1="10" x2="15" y2="20" stroke="#2563eb" stroke-width="1"/>
      <line x1="30" y1="15" x2="15" y2="20" stroke="#10b981" stroke-width="1"/>
      
      <text x="20" y="35" font-family="Arial, sans-serif" font-size="8" fill="#6b7280" text-anchor="middle">Algorithm</text>
    </g>
  </g>
  
  <!-- Floating mathematical symbols -->
  <g opacity="0.3">
    <text x="80" y="80" font-family="serif" font-size="14" fill="#2563eb">∑</text>
    <text x="520" y="90" font-family="serif" font-size="12" fill="#059669">∫</text>
    <text x="100" y="350" font-family="serif" font-size="10" fill="#10b981">∂</text>
    <text x="500" y="340" font-family="serif" font-size="12" fill="#7c3aed">∇</text>
  </g>
  
  <!-- Binary data streams -->
  <g opacity="0.2">
    <text x="50" y="150" font-family="monospace" font-size="8" fill="#2563eb" transform="rotate(-45 50 150)">10110101</text>
    <text x="530" y="200" font-family="monospace" font-size="8" fill="#10b981" transform="rotate(45 530 200)">11001010</text>
    <text x="200" y="380" font-family="monospace" font-size="8" fill="#059669">01011110</text>
    <text x="450" y="30" font-family="monospace" font-size="8" fill="#7c3aed">11100001</text>
  </g>
  
  <!-- Pulsing circles for dynamic effect -->
  <g opacity="0.2">
    <circle cx="300" cy="200" r="100" fill="none" stroke="#10b981" stroke-width="1">
      <animate attributeName="r" values="100;120;100" dur="4s" repeatCount="indefinite"/>
      <animate attributeName="opacity" values="0.2;0.1;0.2" dur="4s" repeatCount="indefinite"/>
    </circle>
    
    <circle cx="300" cy="200" r="150" fill="none" stroke="#2563eb" stroke-width="0.5">
      <animate attributeName="r" values="150;170;150" dur="6s" repeatCount="indefinite"/>
      <animate attributeName="opacity" values="0.1;0.05;0.1" dur="6s" repeatCount="indefinite"/>
    </circle>
  </g>
  
  <!-- Central glow pulse -->
  <circle cx="300" cy="200" r="30" fill="url(#glow)">
    <animate attributeName="r" values="30;50;30" dur="3s" repeatCount="indefinite"/>
    <animate attributeName="opacity" values="0.5;0.2;0.5" dur="3s" repeatCount="indefinite"/>
  </circle>
</svg>
