<svg width="400" height="300" viewBox="0 0 400 300" fill="none" xmlns="http://www.w3.org/2000/svg">
  <defs>
    <linearGradient id="room-gradient" x1="0%" y1="0%" x2="100%" y2="100%">
      <stop offset="0%" style="stop-color:#f8fafc"/>
      <stop offset="100%" style="stop-color:#e2e8f0"/>
    </linearGradient>
    <linearGradient id="screen-gradient" x1="0%" y1="0%" x2="100%" y2="100%">
      <stop offset="0%" style="stop-color:#1e293b"/>
      <stop offset="100%" style="stop-color:#0f172a"/>
    </linearGradient>
  </defs>
  
  <!-- Conference room background -->
  <rect width="400" height="300" fill="url(#room-gradient)"/>
  
  <!-- Floor -->
  <rect x="0" y="200" width="400" height="100" fill="#64748b" opacity="0.1"/>
  
  <!-- Presentation screen -->
  <rect x="50" y="30" width="120" height="80" rx="5" fill="#1e293b"/>
  <rect x="55" y="35" width="110" height="70" rx="3" fill="url(#screen-gradient)"/>
  
  <!-- Screen content - AI presentation -->
  <g transform="translate(60, 40)">
    <!-- Title -->
    <rect x="5" y="5" width="40" height="4" rx="2" fill="#10b981"/>
    <rect x="5" y="12" width="60" height="3" rx="1" fill="#e2e8f0"/>
    
    <!-- AI Brain diagram -->
    <circle cx="25" cy="35" r="12" fill="#2563eb" opacity="0.3"/>
    <circle cx="22" cy="30" r="2" fill="#ffffff"/>
    <circle cx="28" cy="30" r="2" fill="#ffffff"/>
    <circle cx="25" cy="38" r="2" fill="#ffffff"/>
    <circle cx="20" cy="42" r="2" fill="#ffffff"/>
    <circle cx="30" cy="42" r="2" fill="#ffffff"/>
    
    <!-- Neural connections -->
    <line x1="22" y1="30" x2="25" y2="38" stroke="#10b981" stroke-width="1"/>
    <line x1="28" y1="30" x2="25" y2="38" stroke="#10b981" stroke-width="1"/>
    <line x1="25" y1="38" x2="20" y2="42" stroke="#10b981" stroke-width="1"/>
    <line x1="25" y1="38" x2="30" y2="42" stroke="#10b981" stroke-width="1"/>
    
    <!-- Chart -->
    <g transform="translate(55, 25)">
      <rect x="0" y="0" width="3" height="15" fill="#10b981"/>
      <rect x="5" y="5" width="3" height="10" fill="#2563eb"/>
      <rect x="10" y="2" width="3" height="13" fill="#059669"/>
      <rect x="15" y="8" width="3" height="7" fill="#7c3aed"/>
    </g>
    
    <!-- Bullet points -->
    <circle cx="8" cy="52" r="1" fill="#10b981"/>
    <rect x="12" y="50" width="25" height="2" rx="1" fill="#e2e8f0"/>
    
    <circle cx="8" cy="58" r="1" fill="#2563eb"/>
    <rect x="12" y="56" width="30" height="2" rx="1" fill="#e2e8f0"/>
  </g>
  
  <!-- Screen stand -->
  <rect x="105" y="110" width="4" height="30" fill="#64748b"/>
  <ellipse cx="107" cy="145" rx="15" ry="5" fill="#64748b"/>
  
  <!-- Conference table -->
  <ellipse cx="200" cy="180" rx="130" ry="40" fill="#8b5cf6" opacity="0.1"/>
  <ellipse cx="200" cy="175" rx="120" ry="35" fill="#6366f1"/>
  
  <!-- Laptops on table -->
  <g opacity="0.8">
    <!-- Laptop 1 -->
    <rect x="140" y="155" width="25" height="18" rx="2" fill="#475569"/>
    <rect x="143" y="158" width="19" height="12" rx="1" fill="#0f172a"/>
    <rect x="144" y="159" width="17" height="10" fill="#10b981" opacity="0.2"/>
    
    <!-- Laptop 2 -->
    <rect x="200" y="158" width="25" height="18" rx="2" fill="#475569"/>
    <rect x="203" y="161" width="19" height="12" rx="1" fill="#0f172a"/>
    <rect x="204" y="162" width="17" height="10" fill="#2563eb" opacity="0.2"/>
    
    <!-- Laptop 3 -->
    <rect x="260" y="155" width="25" height="18" rx="2" fill="#475569"/>
    <rect x="263" y="158" width="19" height="12" rx="1" fill="#0f172a"/>
    <rect x="264" y="159" width="17" height="10" fill="#059669" opacity="0.2"/>
  </g>
  
  <!-- Documents and materials -->
  <g opacity="0.7">
    <!-- Papers -->
    <rect x="120" y="165" width="15" height="20" rx="1" fill="#ffffff"/>
    <rect x="122" y="167" width="8" height="2" rx="0.5" fill="#2563eb"/>
    <rect x="122" y="171" width="10" height="1" rx="0.5" fill="#64748b"/>
    <rect x="122" y="174" width="9" height="1" rx="0.5" fill="#64748b"/>
    
    <!-- Notebook -->
    <rect x="300" y="162" width="18" height="22" rx="1" fill="#fbbf24"/>
    <rect x="302" y="164" width="14" height="1" rx="0.5" fill="#f59e0b"/>
    <rect x="302" y="167" width="12" height="1" rx="0.5" fill="#f59e0b"/>
    <rect x="302" y="170" width="10" height="1" rx="0.5" fill="#f59e0b"/>
  </g>
  
  <!-- Attendees -->
  <!-- Person 1 (Presenter) -->
  <g transform="translate(190, 80)">
    <circle cx="0" cy="0" r="15" fill="#2563eb" opacity="0.2"/>
    <circle cx="0" cy="-3" r="8" fill="#fbbf24"/>
    <rect x="-6" y="3" width="12" height="15" rx="6" fill="#2563eb"/>
    <rect x="-4" y="8" width="8" height="6" fill="#ffffff" opacity="0.3"/>
    
    <!-- Pointing gesture -->
    <line x1="8" y1="5" x2="20" y2="0" stroke="#2563eb" stroke-width="2"/>
  </g>
  
  <!-- Audience members -->
  <!-- Person 2 -->
  <g transform="translate(120, 140)">
    <circle cx="0" cy="0" r="12" fill="#10b981" opacity="0.2"/>
    <circle cx="0" cy="-2" r="6" fill="#ef4444"/>
    <rect x="-5" y="2" width="10" height="12" rx="5" fill="#10b981"/>
  </g>
  
  <!-- Person 3 -->
  <g transform="translate(160, 135)">
    <circle cx="0" cy="0" r="12" fill="#059669" opacity="0.2"/>
    <circle cx="0" cy="-2" r="6" fill="#8b5cf6"/>
    <rect x="-5" y="2" width="10" height="12" rx="5" fill="#059669"/>
  </g>
  
  <!-- Person 4 -->
  <g transform="translate(240, 135)">
    <circle cx="0" cy="0" r="12" fill="#7c3aed" opacity="0.2"/>
    <circle cx="0" cy="-2" r="6" fill="#10b981"/>
    <rect x="-5" y="2" width="10" height="12" rx="5" fill="#7c3aed"/>
  </g>
  
  <!-- Person 5 -->
  <g transform="translate(280, 140)">
    <circle cx="0" cy="0" r="12" fill="#f59e0b" opacity="0.2"/>
    <circle cx="0" cy="-2" r="6" fill="#2563eb"/>
    <rect x="-5" y="2" width="10" height="12" rx="5" fill="#f59e0b"/>
  </g>
  
  <!-- Attention lines (showing focus on presenter) -->
  <g opacity="0.2">
    <line x1="120" y1="140" x2="180" y2="90" stroke="#10b981" stroke-width="1"/>
    <line x1="160" y1="135" x2="185" y2="90" stroke="#059669" stroke-width="1"/>
    <line x1="240" y1="135" x2="195" y2="90" stroke="#7c3aed" stroke-width="1"/>
    <line x1="280" y1="140" x2="200" y2="90" stroke="#f59e0b" stroke-width="1"/>
  </g>
  
  <!-- Floating learning elements -->
  <g opacity="0.4">
    <!-- Knowledge transfer symbols -->
    <circle cx="320" cy="60" r="8" fill="#10b981" opacity="0.3"/>
    <path d="M316 60 L320 56 L324 60 L320 64 Z" fill="#10b981"/>
    
    <!-- Ideas/lightbulb -->
    <circle cx="350" cy="100" r="6" fill="#fbbf24" opacity="0.5"/>
    <rect x="348" y="104" width="4" height="4" fill="#f59e0b"/>
    
    <!-- Code symbols -->
    <text x="30" y="40" font-family="monospace" font-size="8" fill="#2563eb" opacity="0.6">&lt;/&gt;</text>
    <text x="350" y="180" font-family="monospace" font-size="8" fill="#059669" opacity="0.6">AI()</text>
    
    <!-- Growth arrows -->
    <path d="M 300 250 L 310 240 L 320 250" stroke="#10b981" stroke-width="2" fill="none"/>
    <line x1="310" y1="240" x2="310" y2="260" stroke="#10b981" stroke-width="2"/>
  </g>
  
  <!-- Room lighting effects -->
  <g opacity="0.1">
    <ellipse cx="100" cy="20" rx="30" ry="10" fill="#fbbf24"/>
    <ellipse cx="300" cy="25" rx="35" ry="12" fill="#fbbf24"/>
  </g>
</svg>
