<svg width="120" height="40" viewBox="0 0 120 40" fill="none" xmlns="http://www.w3.org/2000/svg">
  <!-- Background circle -->
  <circle cx="20" cy="20" r="18" fill="#2563eb" opacity="0.1"/>
  
  <!-- Brain/Neural network icon -->
  <g transform="translate(8, 8)">
    <!-- Main brain outline -->
    <path d="M12 2C16.97 2 21 6.03 21 11C21 13.5 20.2 15.8 18.8 17.7C18.9 18.1 19 18.5 19 19C19 21.21 17.21 23 15 23H13C11.9 23 11 22.1 11 21V20H9C7.9 20 7 19.1 7 18V16.5C5.6 14.9 5 12.6 5 11C5 6.03 9.03 2 12 2Z" fill="#2563eb"/>
    
    <!-- Neural connections -->
    <circle cx="10" cy="8" r="1.5" fill="#ffffff"/>
    <circle cx="14" cy="8" r="1.5" fill="#ffffff"/>
    <circle cx="12" cy="12" r="1.5" fill="#ffffff"/>
    <circle cx="8" cy="14" r="1.5" fill="#ffffff"/>
    <circle cx="16" cy="14" r="1.5" fill="#ffffff"/>
    
    <!-- Connection lines -->
    <line x1="10" y1="8" x2="12" y2="12" stroke="#10b981" stroke-width="1" opacity="0.7"/>
    <line x1="14" y1="8" x2="12" y2="12" stroke="#10b981" stroke-width="1" opacity="0.7"/>
    <line x1="12" y1="12" x2="8" y2="14" stroke="#10b981" stroke-width="1" opacity="0.7"/>
    <line x1="12" y1="12" x2="16" y2="14" stroke="#10b981" stroke-width="1" opacity="0.7"/>
  </g>
  
  <!-- Text -->
  <text x="44" y="16" font-family="Arial, sans-serif" font-size="12" font-weight="bold" fill="#2563eb">MindMatrix</text>
  <text x="44" y="28" font-family="Arial, sans-serif" font-size="8" fill="#059669">AIML Academy</text>
</svg>
