<svg width="400" height="300" viewBox="0 0 400 300" fill="none" xmlns="http://www.w3.org/2000/svg">
  <defs>
    <linearGradient id="book-gradient" x1="0%" y1="0%" x2="100%" y2="100%">
      <stop offset="0%" style="stop-color:#1f2937"/>
      <stop offset="100%" style="stop-color:#374151"/>
    </linearGradient>
    <linearGradient id="page-gradient" x1="0%" y1="0%" x2="100%" y2="100%">
      <stop offset="0%" style="stop-color:#ffffff"/>
      <stop offset="100%" style="stop-color:#f9fafb"/>
    </linearGradient>
  </defs>
  
  <!-- Desk surface -->
  <ellipse cx="200" cy="280" rx="180" ry="20" fill="#e5e7eb" opacity="0.5"/>
  
  <!-- Open book -->
  <g transform="translate(150, 120)">
    <!-- Book spine and binding -->
    <rect x="0" y="0" width="100" height="120" rx="5" fill="url(#book-gradient)"/>
    
    <!-- Left page -->
    <rect x="10" y="10" width="80" height="100" rx="3" fill="url(#page-gradient)"/>
    
    <!-- Text lines on left page -->
    <rect x="15" y="20" width="50" height="3" rx="1" fill="#2563eb"/>
    <rect x="15" y="28" width="65" height="2" rx="1" fill="#6b7280"/>
    <rect x="15" y="34" width="60" height="2" rx="1" fill="#6b7280"/>
    <rect x="15" y="40" width="55" height="2" rx="1" fill="#6b7280"/>
    
    <!-- Section header -->
    <rect x="15" y="50" width="40" height="3" rx="1" fill="#059669"/>
    <rect x="15" y="58" width="70" height="2" rx="1" fill="#6b7280"/>
    <rect x="15" y="64" width="65" height="2" rx="1" fill="#6b7280"/>
    <rect x="15" y="70" width="45" height="2" rx="1" fill="#6b7280"/>
    
    <!-- Another section -->
    <rect x="15" y="80" width="35" height="3" rx="1" fill="#10b981"/>
    <rect x="15" y="88" width="60" height="2" rx="1" fill="#6b7280"/>
    <rect x="15" y="94" width="55" height="2" rx="1" fill="#6b7280"/>
    
    <!-- Right page -->
    <rect x="110" y="10" width="80" height="100" rx="3" fill="url(#page-gradient)"/>
    
    <!-- Week numbers and content on right page -->
    <circle cx="125" cy="25" r="8" fill="#2563eb"/>
    <text x="125" y="29" font-family="Arial, sans-serif" font-size="10" font-weight="bold" fill="#ffffff" text-anchor="middle">1</text>
    <rect x="140" y="20" width="35" height="2" rx="1" fill="#6b7280"/>
    <rect x="140" y="26" width="40" height="2" rx="1" fill="#6b7280"/>
    
    <circle cx="125" cy="45" r="8" fill="#059669"/>
    <text x="125" y="49" font-family="Arial, sans-serif" font-size="10" font-weight="bold" fill="#ffffff" text-anchor="middle">2</text>
    <rect x="140" y="40" width="35" height="2" rx="1" fill="#6b7280"/>
    <rect x="140" y="46" width="40" height="2" rx="1" fill="#6b7280"/>
    
    <circle cx="125" cy="65" r="8" fill="#10b981"/>
    <text x="125" y="69" font-family="Arial, sans-serif" font-size="10" font-weight="bold" fill="#ffffff" text-anchor="middle">3</text>
    <rect x="140" y="60" width="35" height="2" rx="1" fill="#6b7280"/>
    <rect x="140" y="66" width="40" height="2" rx="1" fill="#6b7280"/>
    
    <circle cx="125" cy="85" r="8" fill="#7c3aed"/>
    <text x="125" y="89" font-family="Arial, sans-serif" font-size="10" font-weight="bold" fill="#ffffff" text-anchor="middle">4</text>
    <rect x="140" y="80" width="35" height="2" rx="1" fill="#6b7280"/>
    <rect x="140" y="86" width="40" height="2" rx="1" fill="#6b7280"/>
  </g>
  
  <!-- Notebook with spiral binding -->
  <g transform="translate(280, 140)">
    <rect x="0" y="0" width="80" height="100" rx="3" fill="#ffffff"/>
    <rect x="0" y="0" width="10" height="100" fill="#e5e7eb"/>
    
    <!-- Spiral binding holes -->
    <circle cx="5" cy="10" r="2" fill="#9ca3af"/>
    <circle cx="5" cy="25" r="2" fill="#9ca3af"/>
    <circle cx="5" cy="40" r="2" fill="#9ca3af"/>
    <circle cx="5" cy="55" r="2" fill="#9ca3af"/>
    <circle cx="5" cy="70" r="2" fill="#9ca3af"/>
    <circle cx="5" cy="85" r="2" fill="#9ca3af"/>
    
    <!-- Notes content -->
    <rect x="15" y="15" width="50" height="3" rx="1" fill="#2563eb"/>
    <rect x="15" y="25" width="45" height="2" rx="1" fill="#6b7280"/>
    <rect x="15" y="31" width="55" height="2" rx="1" fill="#6b7280"/>
    <rect x="15" y="37" width="40" height="2" rx="1" fill="#6b7280"/>
    
    <!-- Bullet points -->
    <circle cx="18" cy="50" r="1.5" fill="#10b981"/>
    <rect x="25" y="48" width="35" height="2" rx="1" fill="#6b7280"/>
    
    <circle cx="18" cy="58" r="1.5" fill="#10b981"/>
    <rect x="25" y="56" width="40" height="2" rx="1" fill="#6b7280"/>
    
    <circle cx="18" cy="66" r="1.5" fill="#10b981"/>
    <rect x="25" y="64" width="30" height="2" rx="1" fill="#6b7280"/>
  </g>
  
  <!-- Coffee cup -->
  <g transform="translate(80, 180)">
    <ellipse cx="15" cy="35" rx="12" ry="3" fill="#8b5cf6" opacity="0.3"/>
    <rect x="3" y="15" width="24" height="20" rx="12" fill="#ffffff"/>
    <rect x="5" y="17" width="20" height="16" rx="10" fill="#8b4513"/>
    
    <!-- Handle -->
    <path d="M27 20 Q35 20 35 25 Q35 30 27 30" stroke="#d1d5db" stroke-width="2" fill="none"/>
    
    <!-- Steam -->
    <path d="M10 10 Q12 5 10 0" stroke="#9ca3af" stroke-width="1" fill="none" opacity="0.6"/>
    <path d="M15 8 Q17 3 15 -2" stroke="#9ca3af" stroke-width="1" fill="none" opacity="0.6"/>
    <path d="M20 10 Q22 5 20 0" stroke="#9ca3af" stroke-width="1" fill="none" opacity="0.6"/>
  </g>
  
  <!-- Pencils -->
  <g transform="translate(50, 200)">
    <!-- Pencil 1 -->
    <rect x="0" y="0" width="60" height="4" rx="2" fill="#fbbf24"/>
    <rect x="55" y="0" width="8" height="4" rx="2" fill="#f59e0b"/>
    <rect x="0" y="0" width="8" height="4" rx="2" fill="#fde047"/>
    
    <!-- Pencil 2 -->
    <rect x="0" y="8" width="60" height="4" rx="2" fill="#10b981"/>
    <rect x="55" y="8" width="8" height="4" rx="2" fill="#059669"/>
    <rect x="0" y="8" width="8" height="4" rx="2" fill="#34d399"/>
  </g>
  
  <!-- Floating study elements -->
  <g opacity="0.4">
    <!-- Mathematical formulas -->
    <text x="320" y="50" font-family="serif" font-size="12" fill="#2563eb">f(x) = x²</text>
    <text x="30" y="80" font-family="serif" font-size="10" fill="#059669">∫ dx</text>
    
    <!-- AI/ML symbols -->
    <circle cx="350" cy="100" r="3" fill="#10b981"/>
    <circle cx="360" cy="110" r="3" fill="#2563eb"/>
    <circle cx="370" cy="105" r="3" fill="#059669"/>
    <line x1="350" y1="100" x2="360" y2="110" stroke="#10b981" stroke-width="1"/>
    <line x1="360" y1="110" x2="370" y2="105" stroke="#2563eb" stroke-width="1"/>
    
    <!-- Progress indicators -->
    <rect x="320" y="250" width="60" height="8" rx="4" fill="#e5e7eb"/>
    <rect x="320" y="250" width="40" height="8" rx="4" fill="#10b981"/>
    
    <!-- Calendar/timeline -->
    <rect x="20" y="250" width="6" height="6" fill="#2563eb"/>
    <rect x="30" y="250" width="6" height="6" fill="#059669"/>
    <rect x="40" y="250" width="6" height="6" fill="#10b981"/>
    <rect x="50" y="250" width="6" height="6" fill="#e5e7eb"/>
  </g>
</svg>
